<mxfile host="65bd71144e">
    <diagram id="eLf1YcTytpUXePoGHOg8" name="Detailed">
        <mxGraphModel dx="1880" dy="1984" grid="1" gridSize="10" guides="1" tooltips="1" connect="1" arrows="1" fold="1" page="1" pageScale="1" pageWidth="827" pageHeight="1169" math="0" shadow="0">
            <root>
                <mxCell id="0"/>
                <mxCell id="1" parent="0"/>
                <mxCell id="8" value="" style="group" vertex="1" connectable="0" parent="1">
                    <mxGeometry x="120" y="500" width="160" height="140" as="geometry"/>
                </mxCell>
                <mxCell id="4" value="Server" style="rounded=0;whiteSpace=wrap;html=1;verticalAlign=top;" vertex="1" parent="8">
                    <mxGeometry width="160" height="140" as="geometry"/>
                </mxCell>
                <mxCell id="7" value="Agent" style="shape=module;align=left;spacingLeft=20;align=center;verticalAlign=top;" vertex="1" parent="8">
                    <mxGeometry x="50" y="80" width="100" height="50" as="geometry"/>
                </mxCell>
                <mxCell id="9" value="" style="group" vertex="1" connectable="0" parent="1">
                    <mxGeometry x="120" y="330" width="160" height="140" as="geometry"/>
                </mxCell>
                <mxCell id="3" value="Middleware" style="rounded=0;whiteSpace=wrap;html=1;verticalAlign=top;" vertex="1" parent="9">
                    <mxGeometry width="160" height="140" as="geometry"/>
                </mxCell>
                <mxCell id="6" value="Agent" style="shape=module;align=left;spacingLeft=20;align=center;verticalAlign=top;" vertex="1" parent="9">
                    <mxGeometry x="50" y="80" width="100" height="50" as="geometry"/>
                </mxCell>
                <mxCell id="10" value="" style="group" vertex="1" connectable="0" parent="1">
                    <mxGeometry x="120" y="160" width="160" height="140" as="geometry"/>
                </mxCell>
                <mxCell id="2" value="Application/Service" style="rounded=0;whiteSpace=wrap;html=1;verticalAlign=top;" vertex="1" parent="10">
                    <mxGeometry width="160" height="140" as="geometry"/>
                </mxCell>
                <mxCell id="5" value="Agent" style="shape=module;align=left;spacingLeft=20;align=center;verticalAlign=top;" vertex="1" parent="10">
                    <mxGeometry x="50" y="80" width="100" height="50" as="geometry"/>
                </mxCell>
                <mxCell id="14" style="edgeStyle=none;html=1;entryX=0.5;entryY=0;entryDx=0;entryDy=0;entryPerimeter=0;" edge="1" parent="1" source="11" target="13">
                    <mxGeometry relative="1" as="geometry"/>
                </mxCell>
                <mxCell id="11" value="Telemtry Endpoint" style="rounded=0;whiteSpace=wrap;html=1;" vertex="1" parent="1">
                    <mxGeometry x="490" y="405" width="120" height="60" as="geometry"/>
                </mxCell>
                <mxCell id="13" value="Telemtry Storage" style="shape=cylinder3;whiteSpace=wrap;html=1;boundedLbl=1;backgroundOutline=1;size=15;" vertex="1" parent="1">
                    <mxGeometry x="520" y="520" width="60" height="80" as="geometry"/>
                </mxCell>
                <mxCell id="15" style="edgeStyle=none;html=1;entryX=0;entryY=0.5;entryDx=0;entryDy=0;" edge="1" parent="1" source="5" target="11">
                    <mxGeometry relative="1" as="geometry">
                        <Array as="points">
                            <mxPoint x="400" y="265"/>
                            <mxPoint x="400" y="435"/>
                        </Array>
                    </mxGeometry>
                </mxCell>
                <mxCell id="16" style="edgeStyle=none;html=1;entryX=0;entryY=0.5;entryDx=0;entryDy=0;" edge="1" parent="1" source="6" target="11">
                    <mxGeometry relative="1" as="geometry"/>
                </mxCell>
                <mxCell id="17" style="edgeStyle=none;html=1;entryX=0;entryY=0.5;entryDx=0;entryDy=0;" edge="1" parent="1" source="7" target="11">
                    <mxGeometry relative="1" as="geometry">
                        <Array as="points">
                            <mxPoint x="400" y="605"/>
                            <mxPoint x="400" y="435"/>
                        </Array>
                    </mxGeometry>
                </mxCell>
                <mxCell id="19" style="edgeStyle=none;html=1;entryX=1;entryY=0.5;entryDx=0;entryDy=0;" edge="1" parent="1" source="18" target="11">
                    <mxGeometry relative="1" as="geometry"/>
                </mxCell>
                <mxCell id="18" value="Telemetry UI" style="rounded=0;whiteSpace=wrap;html=1;" vertex="1" parent="1">
                    <mxGeometry x="660" y="405" width="120" height="60" as="geometry"/>
                </mxCell>
                <mxCell id="20" value="" style="shape=curlyBracket;whiteSpace=wrap;html=1;rounded=1;flipH=1;rotation=90;" vertex="1" parent="1">
                    <mxGeometry x="190" y="600" width="20" height="180" as="geometry"/>
                </mxCell>
                <mxCell id="21" value="Monitored assets" style="text;html=1;strokeColor=none;fillColor=none;align=center;verticalAlign=middle;whiteSpace=wrap;rounded=0;" vertex="1" parent="1">
                    <mxGeometry x="140" y="710" width="120" height="30" as="geometry"/>
                </mxCell>
                <mxCell id="22" value="" style="shape=curlyBracket;whiteSpace=wrap;html=1;rounded=1;flipH=1;rotation=90;" vertex="1" parent="1">
                    <mxGeometry x="538.75" y="623.75" width="20" height="132.5" as="geometry"/>
                </mxCell>
                <mxCell id="23" value="Telemtry Aggregation" style="text;html=1;strokeColor=none;fillColor=none;align=center;verticalAlign=middle;whiteSpace=wrap;rounded=0;" vertex="1" parent="1">
                    <mxGeometry x="465" y="700" width="170" height="30" as="geometry"/>
                </mxCell>
                <mxCell id="24" value="" style="shape=curlyBracket;whiteSpace=wrap;html=1;rounded=1;flipH=1;rotation=90;" vertex="1" parent="1">
                    <mxGeometry x="710" y="623.75" width="20" height="132.5" as="geometry"/>
                </mxCell>
                <mxCell id="25" value="Query/Visualization" style="text;html=1;strokeColor=none;fillColor=none;align=center;verticalAlign=middle;whiteSpace=wrap;rounded=0;" vertex="1" parent="1">
                    <mxGeometry x="635" y="710" width="170" height="30" as="geometry"/>
                </mxCell>
            </root>
        </mxGraphModel>
    </diagram>
    <diagram id="XQy5I_RAmhHj6AwEORgt" name="Overview">
        <mxGraphModel dx="1880" dy="1984" grid="1" gridSize="10" guides="1" tooltips="1" connect="1" arrows="1" fold="1" page="1" pageScale="1" pageWidth="827" pageHeight="1169" math="0" shadow="0">
            <root>
                <mxCell id="dNIRrPCRxZD0Elblk-Zp-0"/>
                <mxCell id="dNIRrPCRxZD0Elblk-Zp-1" parent="dNIRrPCRxZD0Elblk-Zp-0"/>
                <mxCell id="SZbZZBHdqGJB-U5udt-8-1" value="Telemetry Server" style="rounded=0;whiteSpace=wrap;html=1;" vertex="1" parent="dNIRrPCRxZD0Elblk-Zp-1">
                    <mxGeometry x="340" y="460" width="120" height="60" as="geometry"/>
                </mxCell>
                <mxCell id="SZbZZBHdqGJB-U5udt-8-5" value="push" style="edgeStyle=none;html=1;entryX=0;entryY=0.5;entryDx=0;entryDy=0;" edge="1" parent="dNIRrPCRxZD0Elblk-Zp-1" source="SZbZZBHdqGJB-U5udt-8-2" target="SZbZZBHdqGJB-U5udt-8-1">
                    <mxGeometry relative="1" as="geometry"/>
                </mxCell>
                <mxCell id="SZbZZBHdqGJB-U5udt-8-2" value="Source" style="rounded=0;whiteSpace=wrap;html=1;" vertex="1" parent="dNIRrPCRxZD0Elblk-Zp-1">
                    <mxGeometry x="110" y="460" width="120" height="60" as="geometry"/>
                </mxCell>
            </root>
        </mxGraphModel>
    </diagram>
</mxfile>